<svg viewBox="0 0 45 45" fill="none"
    xmlns="http://www.w3.org/2000/svg">
    <path d="M21.7481 0.0122036C10.3945 0.385331 0.840817 9.614 0.0555551 21.0045C-0.774708 33.0554 7.80017 43.2384 19.1381 44.9503V28.6073H15.5065C13.873 28.6073 12.55 27.2776 12.55 25.6358C12.55 23.9941 13.873 22.6644 15.5065 22.6644H19.1359V18.7093C19.1359 12.1603 22.3106 9.2861 27.7265 9.2861C28.5297 9.2861 29.216 9.30419 29.7988 9.33359C31.2298 9.40369 32.3391 10.6022 32.3391 12.0427C32.3391 13.542 31.1308 14.7564 29.639 14.7564H28.6445C26.345 14.7564 25.5417 16.9476 25.5417 19.4171V22.6667H29.7493C31.079 22.6667 32.0961 23.8584 31.8935 25.179L31.6505 26.7643C31.4863 27.8271 30.5773 28.6118 29.5063 28.6118H25.5417V45C36.5286 43.5007 45 34.0617 45 22.6146C45 9.87406 34.5171 -0.403889 21.7481 0.0122036Z" fill="#62226D"/>
</svg>
