<svg viewBox="0 0 45 45" fill="none"
    xmlns="http://www.w3.org/2000/svg">
    <path d="M22.5 0C10.0733 0 0 10.0733 0 22.5C0 34.9268 10.0733 45 22.5 45C34.9268 45 45 34.9268 45 22.5C45 10.0733 34.9268 0 22.5 0ZM18 31.5C12.9285 31.5 8.83575 27.3038 9.0045 22.194C9.15975 17.532 13.0208 13.671 17.6828 13.5068C19.3433 13.4483 20.8958 13.851 22.2435 14.5868C23.2447 15.1335 23.409 16.5083 22.581 17.2913C22.05 17.7908 21.258 17.8875 20.6145 17.541C19.4895 16.9335 18.1418 16.6928 16.704 17.0258C14.5687 17.5185 12.8723 19.2712 12.474 21.4268C11.8125 25.0042 14.5417 28.125 18 28.125C20.7202 28.125 22.9905 26.1922 23.5125 23.625H19.6875C18.756 23.625 18 22.869 18 21.9375C18 21.006 18.756 20.25 19.6875 20.25H24.6803C25.9245 20.25 26.9955 21.231 27 22.4775C27 22.4842 27 22.4932 27 22.5C27 27.4703 22.9703 31.5 18 31.5ZM36 22.5V24.75C36 25.371 35.496 25.875 34.875 25.875C34.254 25.875 33.75 25.371 33.75 24.75V22.5H31.5C30.879 22.5 30.375 21.996 30.375 21.375C30.375 20.754 30.879 20.25 31.5 20.25H33.75V18C33.75 17.379 34.254 16.875 34.875 16.875C35.496 16.875 36 17.379 36 18V20.25H38.25C38.871 20.25 39.375 20.754 39.375 21.375C39.375 21.996 38.871 22.5 38.25 22.5H36Z" fill="#62226D"/>
</svg>
