<svg width="40" height="39" viewBox="0 0 40 39" fill="none"
    xmlns="http://www.w3.org/2000/svg">
    <path d="M19.5 38.8055C16.3889 38.8055 13.4352 38.0046 10.6389 36.4028C7.84257 34.8009 5.56479 32.8796 3.80554 30.6389V35.4722H0V23.8889H11.5833V27.6945H6.40275C7.79164 29.6389 9.68747 31.3357 12.0903 32.7848C14.4931 34.2338 16.963 34.9584 19.5 34.9584C21.5741 34.9584 23.544 34.5672 25.4097 33.7848C27.2755 33.0023 28.919 31.9283 30.3403 30.5625C31.7616 29.1968 32.9005 27.581 33.757 25.7153C34.6134 23.8495 35.0602 21.838 35.0973 19.6806H38.9445C38.9074 22.3658 38.3634 24.8727 37.3125 27.2014C36.2616 29.5301 34.8495 31.5579 33.0764 33.2848C31.3032 35.0116 29.25 36.3634 26.9167 37.3403C24.5833 38.3171 22.1111 38.8055 19.5 38.8055ZM17.9583 31.2639V29.2361C16.8102 28.9676 15.7708 28.4144 14.8403 27.5764C13.9097 26.7384 13.2037 25.5926 12.7222 24.1389L15.5555 23.1111C15.8611 24.2685 16.3912 25.1435 17.1458 25.7361C17.9005 26.3287 18.7917 26.625 19.8195 26.625C20.9028 26.625 21.7431 26.4005 22.3403 25.9514C22.9375 25.5023 23.2361 24.8658 23.2361 24.0417C23.2361 23.2547 22.9306 22.5926 22.3195 22.0556C21.7083 21.5185 20.6435 20.9491 19.125 20.3472C17.1806 19.6157 15.7593 18.8102 14.8611 17.9306C13.963 17.0509 13.5139 15.8935 13.5139 14.4583C13.5139 13.2639 13.8935 12.2037 14.6528 11.2778C15.412 10.3519 16.5417 9.74539 18.0417 9.45833V7.56946H21.0972V9.45833C22.1713 9.61575 23.088 10.0023 23.8472 10.6181C24.6065 11.2338 25.2222 12.1296 25.6945 13.3055L22.9722 14.5C22.6204 13.7037 22.1458 13.1042 21.5486 12.7014C20.9514 12.2986 20.2454 12.0972 19.4305 12.0972C18.5602 12.0972 17.8657 12.294 17.3472 12.6875C16.8287 13.081 16.5694 13.6111 16.5694 14.2778C16.5694 15.0463 16.8935 15.6759 17.5417 16.1667C18.1898 16.6574 19.3148 17.2176 20.9167 17.8472C22.9259 18.625 24.3241 19.507 25.1111 20.4931C25.8982 21.4792 26.2917 22.6621 26.2917 24.0417C26.2917 24.8565 26.162 25.5718 25.9028 26.1875C25.6435 26.8032 25.2778 27.3287 24.8055 27.7639C24.3333 28.1991 23.7778 28.5417 23.1389 28.7917C22.5 29.0417 21.7917 29.2176 21.0139 29.3195V31.2639H17.9583ZM0.138917 19.125C0.138917 16.5324 0.648167 14.0741 1.66667 11.75C2.68519 9.42594 4.06946 7.39586 5.81946 5.65975C7.56946 3.92364 9.62501 2.54632 11.9861 1.52779C14.3472 0.509264 16.8658 0 19.5417 0C22.6528 0 25.6204 0.810194 28.4445 2.43058C31.2685 4.05097 33.5324 5.96301 35.2361 8.16671V3.33333H39.0833V14.9167H27.5V11.1111H32.6806C31.2084 9.08335 29.2523 7.36575 26.8125 5.95833C24.3727 4.55092 21.9491 3.84721 19.5417 3.84721C17.4676 3.84721 15.4977 4.23842 13.632 5.02083C11.7662 5.80325 10.1227 6.87732 8.70138 8.24304C7.28007 9.60879 6.14118 11.2245 5.28471 13.0903C4.42824 14.956 3.98147 16.9676 3.94442 19.125H0.138917Z" fill="#62226D"/>
</svg>
