<svg width="31" height="30" viewBox="0 0 31 30" fill="none" xmlns="http://www.w3.org/2000/svg">
<path d="M2.77775 30C2.01386 30 1.35993 29.728 0.815958 29.184C0.271986 28.6401 0 27.9861 0 27.2222V2.77775C0 2.01386 0.271986 1.35993 0.815958 0.815959C1.35993 0.271986 2.01386 0 2.77775 0H19.1389V2.77775H2.77775V27.2222H27.2222V10.8889H30V27.2222C30 27.9861 29.728 28.6401 29.184 29.184C28.6401 29.728 27.9861 30 27.2222 30H2.77775ZM23.8889 9.5V6.13888H20.5278V3.36112H23.8889V0H26.6667V3.36112H30.0278V6.13888H26.6667V9.5H23.8889ZM5 23.2778H25L18.9167 15.1667L13.7222 22.0278L9.86112 16.9167L5 23.2778Z" fill="white"/>
</svg>
