<svg width="35" height="35" viewBox="0 0 35 35" fill="none"
    xmlns="http://www.w3.org/2000/svg">
    <path d="M15 20H2.5C1.79167 20 1.19792 19.7604 0.71875 19.2812C0.239583 18.8021 0 18.2083 0 17.5C0 16.7917 0.239583 16.1979 0.71875 15.7188C1.19792 15.2396 1.79167 15 2.5 15H15V2.5C15 1.79167 15.2396 1.19792 15.7188 0.71875C16.1979 0.239583 16.7917 0 17.5 0C18.2083 0 18.8021 0.239583 19.2812 0.71875C19.7604 1.19792 20 1.79167 20 2.5V15H32.5C33.2083 15 33.8021 15.2396 34.2812 15.7188C34.7604 16.1979 35 16.7917 35 17.5C35 18.2083 34.7604 18.8021 34.2812 19.2812C33.8021 19.7604 33.2083 20 32.5 20H20V32.5C20 33.2083 19.7604 33.8021 19.2812 34.2812C18.8021 34.7604 18.2083 35 17.5 35C16.7917 35 16.1979 34.7604 15.7188 34.2812C15.2396 33.8021 15 33.2083 15 32.5V20Z" fill="#62226D"/>
</svg>
