<svg width="40" height="40" viewBox="0 0 40 40" fill="none"
    xmlns="http://www.w3.org/2000/svg">
    <path d="M16.9805 0C16.0225 0 15.2035 0.677188 15.0195 1.61719L14.3516 5.04688C12.7101 5.6676 11.1922 6.53481 9.85938 7.62891L6.57032 6.49609C5.66432 6.18409 4.66751 6.55872 4.18751 7.38672L1.17188 12.6133C0.693884 13.4433 0.867853 14.497 1.58985 15.125L4.22657 17.418C4.08945 18.2607 4.00001 19.1186 4.00001 20C4.00001 20.8814 4.08945 21.7393 4.22657 22.582L1.58985 24.875C0.867853 25.503 0.693884 26.5567 1.17188 27.3867L4.18751 32.6133C4.66551 33.4433 5.66432 33.8178 6.57032 33.5078L9.85938 32.375C11.1918 33.4684 12.7108 34.3327 14.3516 34.9531L15.0195 38.3828C15.2035 39.3228 16.0225 40 16.9805 40H23.0195C23.9775 40 24.7965 39.3228 24.9805 38.3828L25.6484 34.9531C27.29 34.3324 28.8078 33.4652 30.1406 32.3711L33.4297 33.5039C34.3357 33.8159 35.3325 33.4433 35.8125 32.6133L38.8281 27.3828C39.3061 26.5528 39.1322 25.503 38.4102 24.875L35.7734 22.582C35.9106 21.7393 36 20.8814 36 20C36 19.1186 35.9106 18.2607 35.7734 17.418L38.4102 15.125C39.1322 14.497 39.3061 13.4433 38.8281 12.6133L35.8125 7.38672C35.3345 6.55672 34.3357 6.18219 33.4297 6.49219L30.1406 7.625C28.8082 6.53159 27.2892 5.66732 25.6484 5.04688L24.9805 1.61719C24.7965 0.677187 23.9775 0 23.0195 0H16.9805ZM20 12C24.418 12 28 15.582 28 20C28 24.418 24.418 28 20 28C15.582 28 12 24.418 12 20C12 15.582 15.582 12 20 12Z" fill="#62226D"/>
</svg>
