<svg width="34" height="32" viewBox="0 0 34 32" fill="none"
    xmlns="http://www.w3.org/2000/svg">
    <path d="M4.01327 31.6595C2.98715 31.6595 2.1185 31.3039 1.40731 30.5927C0.696113 29.8815 0.340515 29.0128 0.340515 27.9867V4.01329C0.340515 2.98287 0.696113 2.11052 1.40731 1.39625C2.1185 0.681968 2.98715 0.324829 4.01327 0.324829H27.9867C29.0171 0.324829 29.8894 0.681968 30.6037 1.39625C31.318 2.11052 31.6751 2.98287 31.6751 4.01329V8.88891H27.9867V4.01329H4.01327V27.9867H27.9867V23.1389H31.6751V27.9867C31.6751 29.0128 31.318 29.8815 30.6037 30.5927C29.8894 31.3039 29.0171 31.6595 27.9867 31.6595H4.01327ZM18.2138 23.9722C17.33 23.9722 16.5734 23.6684 15.9441 23.0608C15.3147 22.4532 15 21.7094 15 20.8294V11.2258C15 10.3602 15.3147 9.61537 15.9441 8.99145C16.5734 8.36754 17.33 8.05558 18.2138 8.05558H30.2064C31.0829 8.05558 31.8339 8.36754 32.4593 8.99145C33.0847 9.61537 33.3974 10.3602 33.3974 11.2258V20.8412C33.3974 21.7022 33.0847 22.4393 32.4593 23.0525C31.8339 23.6656 31.0829 23.9722 30.2064 23.9722H18.2138ZM30.6274 21.1945V10.8333H17.7778V21.1945H30.6274ZM23.0065 18.6111C23.7337 18.6111 24.3495 18.3546 24.8541 17.8415C25.3588 17.3283 25.6111 16.7052 25.6111 15.9722C25.6111 15.2546 25.3542 14.6447 24.8403 14.1424C24.3264 13.64 23.7129 13.3889 23 13.3889C22.287 13.3889 21.6736 13.64 21.1597 14.1424C20.6458 14.6447 20.3888 15.2546 20.3888 15.9722C20.3888 16.7052 20.6433 17.3283 21.1523 17.8414C21.6613 18.3546 22.2794 18.6111 23.0065 18.6111Z" fill="#62226D"/>
</svg>
