<svg viewBox="0 0 34 37" fill="none"
    xmlns="http://www.w3.org/2000/svg">
    <path d="M2.14107 0.0739136C0.891206 0.0739136 0.15858 1.53144 0.873338 2.59344L12.4414 19.7106L0.828061 33.7653C0.0766003 34.6733 0.699115 36.0739 1.85432 36.0739H3.13714C3.70315 36.0739 4.24157 35.8168 4.60861 35.3708L14.7278 23.0974L22.3455 34.3669C23.0699 35.4349 24.2515 36.0739 25.511 36.0739H31.9516C33.2014 36.0739 33.934 34.6183 33.2193 33.5583L21.0136 15.4724L32.0761 2.05438C32.7174 1.27438 32.1822 0.0739136 31.1932 0.0739136H29.5595C28.9954 0.0739136 28.4588 0.329132 28.0918 0.773132L18.7385 12.0934L11.7811 1.78485C11.0586 0.712851 9.87892 0.0739136 8.61554 0.0739136H2.14107Z" fill="#62226D"/>
</svg>
